<?xml version="1.0" encoding="utf-8"?>
<!-- Generator: Adobe Illustrator 22.0.1, SVG Export Plug-In . SVG Version: 6.00 Build 0)  -->
<svg version="1.1" id="Layer_1" xmlns="http://www.w3.org/2000/svg" xmlns:xlink="http://www.w3.org/1999/xlink" x="0px" y="0px"
	 viewBox="0 0 1143.1 1077.1" style="enable-background:new 0 0 1143.1 1077.1;" xml:space="preserve">
<style type="text/css">
	.st0{fill:#FBFBFB;}
	.st1{fill:url(#SVGID_1_);}
	.st2{fill:none;stroke:#D2D2D2;stroke-width:3.6927;}
	.st3{fill:url(#SVGID_2_);}
	.st4{fill:url(#SVGID_3_);}
	.st5{fill:url(#SVGID_4_);}
	.st6{fill:url(#SVGID_5_);}
	.st7{fill:url(#SVGID_6_);}
	.st8{fill:url(#SVGID_7_);}
	.st9{fill:url(#SVGID_8_);}
	.st10{fill:url(#SVGID_9_);}
	.st11{fill:url(#SVGID_10_);}
	.st12{fill:url(#SVGID_11_);}
	.st13{fill:url(#SVGID_12_);}
	.st14{fill:url(#SVGID_13_);}
	.st15{fill:url(#SVGID_14_);}
	.st16{fill:#BB2828;}
	.st17{fill:url(#SVGID_15_);}
	.st18{fill:url(#SVGID_16_);}
	.st19{fill:#B92C2C;}
	.st20{fill:url(#SVGID_17_);}
	.st21{fill:url(#SVGID_18_);}
	.st22{fill:url(#SVGID_19_);}
	.st23{opacity:0.24;fill:#FFFFFF;}
	.st24{fill:url(#SVGID_20_);}
	.st25{fill:url(#SVGID_21_);}
	.st26{fill:url(#SVGID_22_);}
	.st27{fill:url(#SVGID_23_);}
	.st28{fill:url(#SVGID_24_);}
	.st29{fill:url(#SVGID_25_);}
	.st30{fill:url(#SVGID_26_);}
	.st31{fill:url(#SVGID_27_);}
	.st32{fill:url(#SVGID_28_);}
	.st33{fill:url(#SVGID_29_);}
	.st34{fill:url(#SVGID_30_);}
	.st35{fill:url(#SVGID_31_);}
	.st36{fill:url(#path7961_1_);}
	.st37{fill:url(#path7963_1_);}
	.st38{fill:url(#path8751_1_);}
	.st39{fill:url(#path8781_1_);}
	.st40{fill:url(#path8791_1_);}
	.st41{fill:url(#path8801_1_);}
	.st42{fill:#C4C4C4;}
	.st43{fill:url(#SVGID_32_);}
	.st44{fill:none;stroke:#E9B121;stroke-width:3.6927;}
	.st45{fill:none;stroke:#F2C94C;stroke-width:1.8464;}
	.st46{fill:#999999;stroke:#000000;stroke-width:0.2573;stroke-linejoin:round;}
	.st47{fill:#D4D4D4;stroke:#000000;stroke-width:0.2573;stroke-linejoin:round;}
	.st48{fill:#CCCCCC;stroke:#000000;stroke-width:0.2572;stroke-linejoin:round;}
	.st49{fill:#808080;stroke:#000000;stroke-width:0.2573;stroke-linejoin:round;}
	.st50{fill:#808080;stroke:#000000;stroke-width:0.2572;stroke-linejoin:round;}
	.st51{fill:#ECECEC;stroke:#000000;stroke-width:0.2573;stroke-linejoin:round;}
	.st52{fill:#B3B3B3;stroke:#000000;stroke-width:0.2573;stroke-linejoin:round;}
	.st53{fill:url(#SVGID_33_);}
	.st54{fill:url(#SVGID_34_);}
	.st55{fill:url(#SVGID_35_);}
	.st56{fill:url(#SVGID_36_);}
	.st57{fill:url(#SVGID_37_);}
	.st58{fill:url(#SVGID_38_);}
	.st59{fill:#E2E2E2;}
	.st60{fill:url(#SVGID_39_);}
	.st61{fill:url(#SVGID_40_);}
	.st62{fill:url(#SVGID_41_);}
	.st63{fill:#59DDFC;}
</style>
<g>
	<path class="st0" d="M62.1,57.8h206.8c6.1,0,11.1,5,11.1,11.1v73.9c0,6.1-5,11.1-11.1,11.1H62.1c-6.1,0-11.1-5-11.1-11.1V68.9
		C51,62.8,56,57.8,62.1,57.8z"/>
	
		<linearGradient id="SVGID_1_" gradientUnits="userSpaceOnUse" x1="165.4744" y1="1728.3351" x2="165.4744" y2="1632.3243" gradientTransform="matrix(1 0 0 -1 0 1786.1416)">
		<stop  offset="0" style="stop-color:#E0E0E0"/>
		<stop  offset="1" style="stop-color:#FFFFFF;stop-opacity:0"/>
	</linearGradient>
	<path class="st1" d="M62.1,57.8h206.8c6.1,0,11.1,5,11.1,11.1v73.9c0,6.1-5,11.1-11.1,11.1H62.1c-6.1,0-11.1-5-11.1-11.1V68.9
		C51,62.8,56,57.8,62.1,57.8z"/>
	<path class="st2" d="M62.1,59.7h206.8c5.1,0,9.2,4.1,9.2,9.2v73.9c0,5.1-4.1,9.2-9.2,9.2H62.1c-5.1,0-9.2-4.1-9.2-9.2V68.9
		C52.8,63.8,57,59.7,62.1,59.7z"/>
</g>
<g>
	<path class="st0" d="M62.1,205.5h206.8c6.1,0,11.1,5,11.1,11.1v73.9c0,6.1-5,11.1-11.1,11.1H62.1c-6.1,0-11.1-5-11.1-11.1v-73.9
		C51,210.5,56,205.5,62.1,205.5z"/>
	
		<linearGradient id="SVGID_2_" gradientUnits="userSpaceOnUse" x1="165.4744" y1="1580.6262" x2="165.4744" y2="1484.6154" gradientTransform="matrix(1 0 0 -1 0 1786.1416)">
		<stop  offset="0" style="stop-color:#E0E0E0"/>
		<stop  offset="1" style="stop-color:#FFFFFF;stop-opacity:0"/>
	</linearGradient>
	<path class="st3" d="M62.1,205.5h206.8c6.1,0,11.1,5,11.1,11.1v73.9c0,6.1-5,11.1-11.1,11.1H62.1c-6.1,0-11.1-5-11.1-11.1v-73.9
		C51,210.5,56,205.5,62.1,205.5z"/>
	<path class="st2" d="M62.1,207.4h206.8c5.1,0,9.2,4.1,9.2,9.2v73.9c0,5.1-4.1,9.2-9.2,9.2H62.1c-5.1,0-9.2-4.1-9.2-9.2v-73.9
		C52.8,211.5,57,207.4,62.1,207.4z"/>
</g>
<g>
	<path class="st0" d="M62.1,353.2h206.8c6.1,0,11.1,5,11.1,11.1v73.9c0,6.1-5,11.1-11.1,11.1H62.1c-6.1,0-11.1-5-11.1-11.1v-73.9
		C51,358.2,56,353.2,62.1,353.2z"/>
	
		<linearGradient id="SVGID_3_" gradientUnits="userSpaceOnUse" x1="165.4744" y1="1432.9172" x2="165.4744" y2="1336.9065" gradientTransform="matrix(1 0 0 -1 0 1786.1416)">
		<stop  offset="0" style="stop-color:#E0E0E0"/>
		<stop  offset="1" style="stop-color:#FFFFFF;stop-opacity:0"/>
	</linearGradient>
	<path class="st4" d="M62.1,353.2h206.8c6.1,0,11.1,5,11.1,11.1v73.9c0,6.1-5,11.1-11.1,11.1H62.1c-6.1,0-11.1-5-11.1-11.1v-73.9
		C51,358.2,56,353.2,62.1,353.2z"/>
	<path class="st2" d="M62.1,355.1h206.8c5.1,0,9.2,4.1,9.2,9.2v73.9c0,5.1-4.1,9.2-9.2,9.2H62.1c-5.1,0-9.2-4.1-9.2-9.2v-73.9
		C52.8,359.2,57,355.1,62.1,355.1z"/>
</g>
<g>
	<path class="st0" d="M62.1,500.9h206.8c6.1,0,11.1,5,11.1,11.1v73.9c0,6.1-5,11.1-11.1,11.1H62.1c-6.1,0-11.1-5-11.1-11.1V512
		C51,505.9,56,500.9,62.1,500.9z"/>
	
		<linearGradient id="SVGID_4_" gradientUnits="userSpaceOnUse" x1="165.4744" y1="1285.2084" x2="165.4744" y2="1189.1976" gradientTransform="matrix(1 0 0 -1 0 1786.1416)">
		<stop  offset="0" style="stop-color:#E0E0E0"/>
		<stop  offset="1" style="stop-color:#FFFFFF;stop-opacity:0"/>
	</linearGradient>
	<path class="st5" d="M62.1,500.9h206.8c6.1,0,11.1,5,11.1,11.1v73.9c0,6.1-5,11.1-11.1,11.1H62.1c-6.1,0-11.1-5-11.1-11.1V512
		C51,505.9,56,500.9,62.1,500.9z"/>
	<path class="st2" d="M62.1,502.8h206.8c5.1,0,9.2,4.1,9.2,9.2v73.9c0,5.1-4.1,9.2-9.2,9.2H62.1c-5.1,0-9.2-4.1-9.2-9.2V512
		C52.8,506.9,57,502.8,62.1,502.8z"/>
</g>
<g>
	<path class="st0" d="M62.1,648.6h206.8c6.1,0,11.1,5,11.1,11.1v73.9c0,6.1-5,11.1-11.1,11.1H62.1c-6.1,0-11.1-5-11.1-11.1v-73.9
		C51,653.6,56,648.6,62.1,648.6z"/>
	
		<linearGradient id="SVGID_5_" gradientUnits="userSpaceOnUse" x1="165.4744" y1="1137.4994" x2="165.4744" y2="1041.4886" gradientTransform="matrix(1 0 0 -1 0 1786.1416)">
		<stop  offset="0" style="stop-color:#E0E0E0"/>
		<stop  offset="1" style="stop-color:#FFFFFF;stop-opacity:0"/>
	</linearGradient>
	<path class="st6" d="M62.1,648.6h206.8c6.1,0,11.1,5,11.1,11.1v73.9c0,6.1-5,11.1-11.1,11.1H62.1c-6.1,0-11.1-5-11.1-11.1v-73.9
		C51,653.6,56,648.6,62.1,648.6z"/>
	<path class="st2" d="M62.1,650.5h206.8c5.1,0,9.2,4.1,9.2,9.2v73.9c0,5.1-4.1,9.2-9.2,9.2H62.1c-5.1,0-9.2-4.1-9.2-9.2v-73.9
		C52.8,654.6,57,650.5,62.1,650.5z"/>
</g>
<g>
	<path class="st0" d="M62.1,796.4h206.8c6.1,0,11.1,5,11.1,11.1v73.9c0,6.1-5,11.1-11.1,11.1H62.1c-6.1,0-11.1-5-11.1-11.1v-73.9
		C51,801.3,56,796.4,62.1,796.4z"/>
	
		<linearGradient id="SVGID_6_" gradientUnits="userSpaceOnUse" x1="165.4744" y1="989.7905" x2="165.4744" y2="893.7797" gradientTransform="matrix(1 0 0 -1 0 1786.1416)">
		<stop  offset="0" style="stop-color:#E0E0E0"/>
		<stop  offset="1" style="stop-color:#FFFFFF;stop-opacity:0"/>
	</linearGradient>
	<path class="st7" d="M62.1,796.4h206.8c6.1,0,11.1,5,11.1,11.1v73.9c0,6.1-5,11.1-11.1,11.1H62.1c-6.1,0-11.1-5-11.1-11.1v-73.9
		C51,801.3,56,796.4,62.1,796.4z"/>
	<path class="st2" d="M62.1,798.2h206.8c5.1,0,9.2,4.1,9.2,9.2v73.9c0,5.1-4.1,9.2-9.2,9.2H62.1c-5.1,0-9.2-4.1-9.2-9.2v-73.9
		C52.8,802.3,57,798.2,62.1,798.2z"/>
</g>
<g>
	<path class="st0" d="M62.1,944.1h206.8c6.1,0,11.1,5,11.1,11.1v73.9c0,6.1-5,11.1-11.1,11.1H62.1c-6.1,0-11.1-5-11.1-11.1v-73.9
		C51,949,56,944.1,62.1,944.1z"/>
	
		<linearGradient id="SVGID_7_" gradientUnits="userSpaceOnUse" x1="165.4744" y1="842.0816" x2="165.4744" y2="746.0708" gradientTransform="matrix(1 0 0 -1 0 1786.1416)">
		<stop  offset="0" style="stop-color:#E0E0E0"/>
		<stop  offset="1" style="stop-color:#FFFFFF;stop-opacity:0"/>
	</linearGradient>
	<path class="st8" d="M62.1,944.1h206.8c6.1,0,11.1,5,11.1,11.1v73.9c0,6.1-5,11.1-11.1,11.1H62.1c-6.1,0-11.1-5-11.1-11.1v-73.9
		C51,949,56,944.1,62.1,944.1z"/>
	<path class="st2" d="M62.1,945.9h206.8c5.1,0,9.2,4.1,9.2,9.2v73.9c0,5.1-4.1,9.2-9.2,9.2H62.1c-5.1,0-9.2-4.1-9.2-9.2v-73.9
		C52.8,950,57,945.9,62.1,945.9z"/>
</g>
<path d="M112.3,1010.5v-47.2h16c3.8,0,7,0.6,9.8,1.9c2.8,1.2,5.2,2.9,7,5.1c1.9,2.1,3.3,4.6,4.3,7.5c1,2.8,1.5,5.9,1.5,9.1
	c0,3.6-0.5,6.8-1.6,9.8c-1.1,2.9-2.6,5.4-4.6,7.4c-1.9,2-4.3,3.6-7.1,4.8c-2.7,1.1-5.8,1.7-9.3,1.7H112.3z M146.3,986.9
	c0-2.8-0.4-5.4-1.2-7.8c-0.8-2.4-2-4.5-3.5-6.2c-1.5-1.7-3.4-3.1-5.6-4c-2.2-1-4.8-1.5-7.6-1.5H117v39h11.4c2.9,0,5.5-0.5,7.7-1.5
	c2.3-1,4.1-2.4,5.6-4.1c1.5-1.8,2.6-3.8,3.4-6.2C145.9,992.3,146.3,989.7,146.3,986.9z M156.8,1010.5c0-1.5,0.1-3,0.4-4.5
	c0.3-1.6,0.8-3.1,1.5-4.6c0.8-1.5,1.9-2.9,3.3-4.3c1.5-1.4,3.4-2.7,5.8-4c1.3-0.7,2.6-1.3,4-1.9c1.4-0.7,2.7-1.4,3.9-2.2
	c1.2-0.8,2.2-1.7,2.9-2.7c0.8-1,1.1-2.2,1.1-3.5c0-0.8-0.2-1.7-0.6-2.5c-0.4-0.8-0.9-1.6-1.7-2.2c-0.7-0.7-1.6-1.2-2.7-1.6
	c-1.1-0.4-2.3-0.6-3.8-0.6c-1.5,0-2.8,0.2-3.9,0.7c-1.2,0.4-2.2,0.9-3.1,1.5c-0.8,0.6-1.6,1.2-2.2,1.9c-0.6,0.6-1.1,1.1-1.4,1.5
	l-3-3.3c0.3-0.3,0.8-0.8,1.5-1.5c0.8-0.7,1.7-1.4,2.9-2.1c1.2-0.7,2.7-1.3,4.3-1.9c1.6-0.6,3.5-0.9,5.5-0.9s3.9,0.3,5.5,0.9
	c1.6,0.5,2.9,1.3,4.1,2.3c1.1,1,1.9,2.1,2.5,3.4c0.6,1.2,0.9,2.5,0.9,3.9c0,1.8-0.4,3.4-1.2,4.7c-0.8,1.3-1.8,2.5-3,3.5
	c-1.2,1-2.4,1.8-3.7,2.5c-1.3,0.7-2.5,1.2-3.6,1.7c-1.4,0.6-2.8,1.3-4.2,2.1c-1.3,0.8-2.5,1.6-3.6,2.5c-1.1,0.9-1.9,2-2.7,3.1
	c-0.7,1.2-1,2.4-1,3.9h23.7v4.1H156.8z M225.6,991.1c0,2.9-0.4,5.6-1.3,8.1c-0.8,2.4-2,4.6-3.5,6.4c-1.5,1.8-3.2,3.2-5.3,4.2
	c-2,1-4.3,1.5-6.6,1.5c-2.4,0-4.6-0.5-6.6-1.5c-2-1-3.8-2.4-5.3-4.2c-1.5-1.8-2.6-3.9-3.5-6.4c-0.8-2.5-1.3-5.2-1.3-8.1
	c0-2.9,0.4-5.6,1.3-8c0.8-2.5,2-4.6,3.5-6.4c1.5-1.8,3.3-3.2,5.3-4.3c2-1,4.3-1.5,6.6-1.5c2.4,0,4.6,0.5,6.6,1.5
	c2,1,3.8,2.4,5.3,4.3c1.5,1.8,2.7,3.9,3.5,6.4C225.2,985.4,225.6,988.1,225.6,991.1z M221,991.1c0-2.4-0.3-4.6-0.9-6.5
	c-0.6-1.9-1.4-3.6-2.5-5c-1.1-1.4-2.3-2.5-3.9-3.3c-1.5-0.8-3.1-1.2-4.9-1.2c-1.8,0-3.5,0.4-5,1.2c-1.5,0.8-2.7,1.8-3.8,3.3
	c-1.1,1.4-1.9,3-2.5,5c-0.6,1.9-0.9,4.1-0.9,6.5c0,2.4,0.3,4.6,0.9,6.5c0.6,1.9,1.5,3.6,2.5,5.1c1.1,1.4,2.3,2.4,3.8,3.2
	c1.5,0.8,3.2,1.1,5,1.1c1.8,0,3.4-0.4,4.9-1.1c1.5-0.8,2.8-1.8,3.9-3.2c1.1-1.4,1.9-3.1,2.5-5.1C220.7,995.6,221,993.4,221,991.1z"
	/>
<path d="M112.3,862.8v-47.2h16c3.8,0,7,0.6,9.8,1.9c2.8,1.2,5.2,2.9,7,5.1c1.9,2.1,3.3,4.6,4.3,7.5c1,2.8,1.5,5.9,1.5,9.1
	c0,3.6-0.5,6.8-1.6,9.8c-1.1,2.9-2.6,5.4-4.6,7.4c-1.9,2-4.3,3.6-7.1,4.8c-2.7,1.1-5.8,1.7-9.3,1.7H112.3z M146.3,839.2
	c0-2.8-0.4-5.4-1.2-7.8c-0.8-2.4-2-4.5-3.5-6.2c-1.5-1.7-3.4-3.1-5.6-4c-2.2-1-4.8-1.5-7.6-1.5H117v39h11.4c2.9,0,5.5-0.5,7.7-1.5
	c2.3-1,4.1-2.4,5.6-4.1c1.5-1.8,2.6-3.8,3.4-6.2C145.9,844.5,146.3,841.9,146.3,839.2z M180.9,858.7v4.1h-22.5v-4.1h9.4v-28.4
	c-0.4,0.5-1,1.1-1.9,1.7c-0.8,0.6-1.8,1.2-2.9,1.7c-1,0.5-2.1,1-3.2,1.3c-1.1,0.4-2.1,0.5-2.9,0.5v-4.4c1,0,2.1-0.3,3.3-0.9
	c1.2-0.6,2.4-1.2,3.5-2c1.1-0.8,2-1.5,2.8-2.1c0.8-0.7,1.2-1.1,1.3-1.3h4.7v33.8H180.9z M185.3,862.8c0-1.5,0.1-3,0.4-4.5
	c0.3-1.6,0.8-3.1,1.5-4.6c0.8-1.5,1.9-2.9,3.3-4.3c1.5-1.4,3.4-2.7,5.8-4c1.3-0.7,2.6-1.3,4-1.9c1.4-0.7,2.7-1.4,3.9-2.2
	c1.2-0.8,2.2-1.7,2.9-2.7c0.8-1,1.1-2.2,1.1-3.5c0-0.8-0.2-1.7-0.6-2.5c-0.4-0.8-0.9-1.6-1.7-2.2c-0.7-0.7-1.6-1.2-2.7-1.6
	c-1.1-0.4-2.3-0.6-3.8-0.6c-1.5,0-2.8,0.2-3.9,0.7c-1.2,0.4-2.2,0.9-3.1,1.5c-0.8,0.6-1.6,1.2-2.2,1.9c-0.6,0.6-1.1,1.1-1.4,1.5
	l-3-3.3c0.3-0.3,0.8-0.8,1.5-1.5c0.8-0.7,1.7-1.4,2.9-2.1c1.2-0.7,2.7-1.3,4.3-1.9c1.6-0.6,3.5-0.9,5.5-0.9c2,0,3.9,0.3,5.5,0.9
	c1.6,0.5,2.9,1.3,4.1,2.3c1.1,1,1.9,2.1,2.5,3.4c0.6,1.2,0.9,2.5,0.9,3.9c0,1.8-0.4,3.4-1.2,4.7c-0.8,1.3-1.8,2.5-3,3.5
	c-1.2,1-2.4,1.8-3.7,2.5c-1.3,0.7-2.5,1.2-3.6,1.7c-1.4,0.6-2.8,1.3-4.2,2.1c-1.3,0.8-2.5,1.6-3.6,2.5c-1.1,0.9-1.9,2-2.7,3.1
	c-0.7,1.2-1,2.4-1,3.9h23.7v4.1H185.3z"/>
<path d="M123.4,124.3V77.1h16c3.8,0,7,0.6,9.8,1.9c2.8,1.2,5.2,2.9,7,5.1c1.9,2.1,3.3,4.6,4.3,7.5c1,2.8,1.5,5.9,1.5,9.1
	c0,3.6-0.5,6.8-1.6,9.8c-1.1,2.9-2.6,5.4-4.6,7.4c-1.9,2-4.3,3.6-7.1,4.8c-2.7,1.1-5.8,1.7-9.3,1.7H123.4z M157.4,100.6
	c0-2.8-0.4-5.4-1.2-7.8c-0.8-2.4-2-4.5-3.5-6.2c-1.5-1.7-3.4-3.1-5.6-4c-2.2-1-4.8-1.5-7.6-1.5H128v39h11.4c2.9,0,5.5-0.5,7.7-1.5
	c2.3-1,4.1-2.4,5.6-4.1c1.5-1.8,2.6-3.8,3.4-6.2C157,106,157.4,103.4,157.4,100.6z M167.9,124.3c0-1.5,0.1-3,0.4-4.5
	c0.3-1.6,0.8-3.1,1.5-4.6c0.8-1.5,1.9-2.9,3.3-4.3c1.5-1.4,3.4-2.7,5.8-4c1.3-0.7,2.6-1.3,4-1.9c1.4-0.7,2.7-1.4,3.9-2.2
	c1.2-0.8,2.2-1.7,2.9-2.7c0.8-1,1.1-2.2,1.1-3.5c0-0.8-0.2-1.7-0.6-2.5c-0.4-0.8-0.9-1.6-1.7-2.2c-0.7-0.7-1.6-1.2-2.7-1.6
	c-1.1-0.4-2.3-0.6-3.8-0.6c-1.5,0-2.8,0.2-3.9,0.7c-1.2,0.4-2.2,0.9-3.1,1.5c-0.8,0.6-1.6,1.2-2.2,1.9c-0.6,0.6-1.1,1.1-1.4,1.5
	l-3-3.3c0.3-0.3,0.8-0.8,1.5-1.5c0.8-0.7,1.7-1.4,2.9-2.1c1.2-0.7,2.7-1.3,4.3-1.9c1.6-0.6,3.5-0.9,5.5-0.9s3.9,0.3,5.5,0.9
	c1.6,0.5,2.9,1.3,4.1,2.3c1.1,1,1.9,2.1,2.5,3.4c0.6,1.2,0.9,2.5,0.9,3.9c0,1.8-0.4,3.4-1.2,4.7c-0.8,1.3-1.8,2.5-3,3.5
	c-1.2,1-2.4,1.8-3.7,2.5c-1.3,0.7-2.5,1.2-3.6,1.7c-1.4,0.6-2.8,1.3-4.2,2.1c-1.3,0.8-2.5,1.6-3.6,2.5c-1.1,0.9-1.9,2-2.7,3.1
	c-0.7,1.2-1,2.4-1,3.9h23.7v4.1H167.9z"/>
<path d="M123.4,272v-47.2h16c3.8,0,7,0.6,9.8,1.9c2.8,1.2,5.2,2.9,7,5.1c1.9,2.1,3.3,4.6,4.3,7.5c1,2.8,1.5,5.9,1.5,9.1
	c0,3.6-0.5,6.8-1.6,9.8c-1.1,2.9-2.6,5.4-4.6,7.4c-1.9,2-4.3,3.6-7.1,4.8c-2.7,1.1-5.8,1.7-9.3,1.7H123.4z M157.4,248.3
	c0-2.8-0.4-5.4-1.2-7.8c-0.8-2.4-2-4.5-3.5-6.2c-1.5-1.7-3.4-3.1-5.6-4c-2.2-1-4.8-1.5-7.6-1.5H128v39h11.4c2.9,0,5.5-0.5,7.7-1.5
	c2.3-1,4.1-2.4,5.6-4.1c1.5-1.8,2.6-3.8,3.4-6.2C157,253.7,157.4,251.1,157.4,248.3z M187.9,280.4v-11.8h-22.1v-4l23.6-30.6h3.1
	v30.4h5.8v4.1h-5.8v11.8H187.9z M170.5,264.5h17.8v-23.3L170.5,264.5z"/>
<path d="M123.4,419.7v-47.2h16c3.8,0,7,0.6,9.8,1.9c2.8,1.2,5.2,2.9,7,5.1c1.9,2.1,3.3,4.6,4.3,7.5c1,2.8,1.5,5.9,1.5,9.1
	c0,3.6-0.5,6.8-1.6,9.8c-1.1,2.9-2.6,5.4-4.6,7.4c-1.9,2-4.3,3.6-7.1,4.8c-2.7,1.1-5.8,1.7-9.3,1.7H123.4z M157.4,396
	c0-2.8-0.4-5.4-1.2-7.8c-0.8-2.4-2-4.5-3.5-6.2c-1.5-1.7-3.4-3.1-5.6-4c-2.2-1-4.8-1.5-7.6-1.5H128v39h11.4c2.9,0,5.5-0.5,7.7-1.5
	c2.3-1,4.1-2.4,5.6-4.1c1.5-1.8,2.6-3.8,3.4-6.2C157,401.4,157.4,398.8,157.4,396z M202.1,404.1c0,2.3-0.4,4.4-1.3,6.4
	c-0.8,1.9-2,3.7-3.5,5.1c-1.5,1.5-3.3,2.6-5.3,3.5c-2,0.8-4.2,1.3-6.6,1.3c-2.5,0-4.8-0.4-6.8-1.3c-2.1-0.9-3.9-2.2-5.4-3.9
	c-1.5-1.7-2.6-3.7-3.5-6.2c-0.8-2.5-1.3-5.3-1.3-8.3c0-4.8,0.4-9,1.3-12.5c0.8-3.6,2-6.6,3.5-8.9c1.6-2.4,3.4-4.2,5.5-5.3
	c2.1-1.2,4.5-1.7,7.1-1.7c3.1,0,6,0.8,8.4,2.3c2.5,1.6,4.4,3.7,5.6,6.4l-2.9,2.7c-0.9-2.3-2.4-4.1-4.4-5.4c-2-1.4-4.3-2.1-6.8-2.1
	c-1.9,0-3.7,0.5-5.3,1.4c-1.6,0.9-3,2.3-4.1,4.1c-1.1,1.7-2,3.9-2.7,6.4c-0.6,2.6-0.9,5.5-0.9,8.7c1-2.6,2.6-4.7,5-6.2
	c2.4-1.6,5.1-2.3,8.1-2.3c2.3,0,4.4,0.4,6.3,1.3c2,0.8,3.7,1.9,5.2,3.4c1.5,1.4,2.6,3.1,3.5,5.1
	C201.7,399.8,202.1,401.9,202.1,404.1z M185.5,416.4c1.7,0,3.3-0.3,4.7-0.9c1.5-0.7,2.8-1.6,3.9-2.7c1.2-1.1,2-2.4,2.7-3.9
	c0.7-1.5,1-3.1,1-4.8c0-1.7-0.3-3.3-1-4.7c-0.7-1.5-1.6-2.8-2.7-3.9c-1.1-1.1-2.4-2-3.9-2.6c-1.5-0.7-3-1-4.7-1s-3.3,0.3-4.8,1
	c-1.5,0.6-2.8,1.5-3.9,2.6c-1.1,1.1-2,2.4-2.7,3.9c-0.6,1.5-0.9,3-0.9,4.7c0,1.7,0.3,3.3,1,4.7c0.7,1.5,1.6,2.8,2.7,3.9
	c1.2,1.1,2.5,2,3.9,2.7C182.2,416.1,183.8,416.4,185.5,416.4z"/>
<path d="M123.4,567.4v-47.2h16c3.8,0,7,0.6,9.8,1.9c2.8,1.2,5.2,2.9,7,5.1c1.9,2.1,3.3,4.6,4.3,7.5c1,2.8,1.5,5.9,1.5,9.1
	c0,3.6-0.5,6.8-1.6,9.8c-1.1,2.9-2.6,5.4-4.6,7.4c-1.9,2-4.3,3.6-7.1,4.8c-2.7,1.1-5.8,1.7-9.3,1.7H123.4z M157.4,543.7
	c0-2.8-0.4-5.4-1.2-7.8c-0.8-2.4-2-4.5-3.5-6.2c-1.5-1.7-3.4-3.1-5.6-4c-2.2-1-4.8-1.5-7.6-1.5H128v39h11.4c2.9,0,5.5-0.5,7.7-1.5
	c2.3-1,4.1-2.4,5.6-4.1c1.5-1.8,2.6-3.8,3.4-6.2C157,549.1,157.4,546.5,157.4,543.7z M201.1,554.3c0,2.1-0.4,4-1.3,5.6
	c-0.9,1.6-2.1,3.1-3.6,4.3c-1.5,1.2-3.3,2.1-5.3,2.8c-2,0.6-4.1,0.9-6.3,0.9c-2.3,0-4.5-0.4-6.5-1.1c-2-0.8-3.7-1.8-5.2-3
	c-1.4-1.3-2.5-2.8-3.3-4.5c-0.8-1.7-1.2-3.5-1.2-5.4c0-1.5,0.3-2.9,0.8-4.2c0.6-1.3,1.3-2.4,2.2-3.4c0.9-1,1.9-1.9,3-2.6
	c1.2-0.8,2.3-1.3,3.5-1.7c-1.1-0.4-2.1-1-3-1.6c-0.9-0.7-1.8-1.4-2.5-2.3c-0.7-0.8-1.3-1.8-1.7-2.8c-0.4-1-0.6-2.1-0.6-3.3
	c0-1.9,0.4-3.7,1.3-5.1c0.9-1.5,2-2.8,3.4-3.8c1.4-1,3-1.8,4.7-2.3c1.8-0.5,3.5-0.8,5.3-0.8c1.8,0,3.5,0.3,5.3,0.8
	c1.8,0.5,3.3,1.3,4.7,2.3c1.4,1,2.6,2.2,3.5,3.7c0.9,1.5,1.3,3.2,1.3,5.1c0,1.2-0.2,2.2-0.7,3.3c-0.4,1-1,2-1.7,2.9
	c-0.7,0.8-1.6,1.6-2.5,2.3c-0.9,0.6-1.9,1.2-3,1.6c1.3,0.4,2.5,1.1,3.7,1.9c1.2,0.8,2.1,1.6,3,2.7c0.9,1,1.6,2.2,2.1,3.5
	C200.8,551.4,201.1,552.8,201.1,554.3z M196.5,554c0-1.6-0.4-3-1.1-4.2c-0.7-1.2-1.6-2.3-2.8-3.1c-1.2-0.8-2.4-1.5-3.9-1.9
	c-1.4-0.4-2.8-0.7-4.2-0.7c-1.5,0-2.9,0.2-4.3,0.7c-1.4,0.4-2.6,1.1-3.7,2c-1.1,0.8-2,1.9-2.7,3.1c-0.7,1.2-1,2.6-1,4.1
	c0,1.6,0.4,2.9,1.1,4.2c0.7,1.2,1.6,2.2,2.7,3.1c1.2,0.8,2.4,1.5,3.8,1.9c1.4,0.4,2.8,0.7,4.3,0.7c1.4,0,2.8-0.2,4.2-0.7
	c1.4-0.5,2.7-1.2,3.8-2c1.1-0.9,2-1.9,2.7-3.1C196.1,556.9,196.5,555.5,196.5,554z M174.5,532.4c0,1.3,0.3,2.4,0.9,3.5
	c0.6,1,1.4,1.8,2.4,2.5c1,0.7,2.1,1.2,3.3,1.5c1.2,0.4,2.4,0.5,3.6,0.5c1.2,0,2.4-0.2,3.6-0.5c1.2-0.4,2.3-0.9,3.3-1.6
	c1-0.7,1.8-1.6,2.5-2.6c0.6-1,0.9-2.2,0.9-3.5c0-1.2-0.3-2.3-0.9-3.3c-0.6-1-1.4-1.9-2.3-2.5c-0.9-0.7-2-1.2-3.3-1.6
	c-1.2-0.4-2.5-0.5-3.9-0.5c-1.3,0-2.5,0.2-3.8,0.6c-1.2,0.4-2.3,0.9-3.2,1.6c-0.9,0.7-1.7,1.5-2.3,2.5
	C174.8,530.1,174.5,531.2,174.5,532.4z"/>
<path d="M123.4,715.1v-47.2h16c3.8,0,7,0.6,9.8,1.9c2.8,1.2,5.2,2.9,7,5.1c1.9,2.1,3.3,4.6,4.3,7.5c1,2.8,1.5,5.9,1.5,9.1
	c0,3.6-0.5,6.8-1.6,9.8c-1.1,2.9-2.6,5.4-4.6,7.4c-1.9,2-4.3,3.6-7.1,4.8c-2.7,1.1-5.8,1.7-9.3,1.7H123.4z M157.4,691.4
	c0-2.8-0.4-5.4-1.2-7.8c-0.8-2.4-2-4.5-3.5-6.2c-1.5-1.7-3.4-3.1-5.6-4c-2.2-1-4.8-1.5-7.6-1.5H128v39h11.4c2.9,0,5.5-0.5,7.7-1.5
	c2.3-1,4.1-2.4,5.6-4.1c1.5-1.8,2.6-3.8,3.4-6.2C157,696.8,157.4,694.2,157.4,691.4z M192,711v4.1h-22.5V711h9.4v-28.4
	c-0.4,0.5-1,1.1-1.9,1.7c-0.8,0.6-1.8,1.2-2.9,1.7c-1,0.5-2.1,1-3.2,1.3c-1.1,0.4-2.1,0.5-2.9,0.5v-4.4c1,0,2.1-0.3,3.3-0.9
	c1.2-0.6,2.4-1.2,3.5-2c1.1-0.8,2-1.5,2.8-2.1c0.8-0.7,1.2-1.1,1.3-1.3h4.7V711H192z M230.4,695.6c0,2.9-0.4,5.6-1.3,8.1
	c-0.8,2.4-2,4.6-3.5,6.4c-1.5,1.8-3.2,3.2-5.3,4.2c-2,1-4.3,1.5-6.6,1.5c-2.4,0-4.6-0.5-6.6-1.5c-2-1-3.8-2.4-5.3-4.2
	c-1.5-1.8-2.6-3.9-3.5-6.4c-0.8-2.5-1.3-5.2-1.3-8.1c0-2.9,0.4-5.6,1.3-8c0.8-2.5,2-4.6,3.5-6.4c1.5-1.8,3.3-3.2,5.3-4.3
	c2-1,4.3-1.5,6.6-1.5c2.4,0,4.6,0.5,6.6,1.5c2,1,3.8,2.4,5.3,4.3c1.5,1.8,2.7,3.9,3.5,6.4C230,690,230.4,692.7,230.4,695.6z
	 M225.9,695.6c0-2.4-0.3-4.6-0.9-6.5c-0.6-1.9-1.4-3.6-2.5-5c-1.1-1.4-2.3-2.5-3.9-3.3c-1.5-0.8-3.1-1.2-4.9-1.2
	c-1.8,0-3.5,0.4-5,1.2c-1.5,0.8-2.7,1.8-3.8,3.3c-1.1,1.4-1.9,3-2.5,5c-0.6,1.9-0.9,4.1-0.9,6.5s0.3,4.6,0.9,6.5
	c0.6,1.9,1.5,3.6,2.5,5.1c1.1,1.4,2.3,2.4,3.8,3.2c1.5,0.8,3.2,1.1,5,1.1c1.8,0,3.4-0.4,4.9-1.1c1.5-0.8,2.8-1.8,3.9-3.2
	c1.1-1.4,1.9-3.1,2.5-5.1C225.5,700.2,225.9,698,225.9,695.6z"/>
<g>
	<linearGradient id="SVGID_8_" gradientUnits="userSpaceOnUse" x1="502.2948" y1="237.2474" x2="543.8391" y2="238.1706">
		<stop  offset="0" style="stop-color:#CFF5F7"/>
		<stop  offset="0.4538" style="stop-color:#82E2E8"/>
		<stop  offset="0.5557" style="stop-color:#6BDCE3"/>
		<stop  offset="0.6048" style="stop-color:#5BBFE2"/>
		<stop  offset="1" style="stop-color:#0016DC"/>
	</linearGradient>
	<path class="st9" d="M482.7,216.4l46.3,21l-4,20.7L482.7,216.4z"/>
	<linearGradient id="SVGID_9_" gradientUnits="userSpaceOnUse" x1="481.8314" y1="233.3876" x2="488.5849" y2="290.8704">
		<stop  offset="0.1146" style="stop-color:#EBFCFD"/>
		<stop  offset="0.1719" style="stop-color:#6BDCE3"/>
		<stop  offset="0.9108" style="stop-color:#0C2BDD"/>
		<stop  offset="0.9946" style="stop-color:#4A5AC1"/>
	</linearGradient>
	<polygon class="st10" points="525.5,257.9 486.5,291.2 443.7,256.1 483.7,216.1 	"/>
	<linearGradient id="SVGID_10_" gradientUnits="userSpaceOnUse" x1="498.8903" y1="242.3359" x2="474.3903" y2="267.0859">
		<stop  offset="0" style="stop-color:#E1F8F9"/>
		<stop  offset="0.1676" style="stop-color:#6BDCE3"/>
		<stop  offset="1" style="stop-color:#0016DC"/>
	</linearGradient>
	<path class="st11" d="M484,217.1l41.5,40.4l-81.6-0.6c-0.3,0-0.4-0.3-0.2-0.5l39.2-39.7C483.3,216.1,483.5,216.6,484,217.1z"/>
</g>
<g>
	<g>
		<linearGradient id="SVGID_11_" gradientUnits="userSpaceOnUse" x1="491.3226" y1="569.0743" x2="491.3226" y2="502.228">
			<stop  offset="0.2919" style="stop-color:#FF8000"/>
			<stop  offset="1" style="stop-color:#FFC58B"/>
		</linearGradient>
		<polygon class="st12" points="539,534.6 492.5,575.3 443.6,533.7 492.5,493.9 		"/>
	</g>
	<linearGradient id="SVGID_12_" gradientUnits="userSpaceOnUse" x1="480.5582" y1="569.1741" x2="480.5582" y2="500.642">
		<stop  offset="0" style="stop-color:#FF8000"/>
		<stop  offset="1" style="stop-color:#FFC58B"/>
	</linearGradient>
	<path class="st13" d="M517.8,533.5l-25.4,42.1l-49.1-42.1l49.1-41.4L517.8,533.5z"/>
</g>
<linearGradient id="SVGID_13_" gradientUnits="userSpaceOnUse" x1="491.0924" y1="531.2547" x2="491.0924" y2="496.4262">
	<stop  offset="0" style="stop-color:#FF8000"/>
	<stop  offset="0.6108" style="stop-color:#FFC58B"/>
</linearGradient>
<path class="st14" d="M492.4,492.1l46.4,42.4l-95.4-0.9L492.4,492.1z"/>
<linearGradient id="SVGID_14_" gradientUnits="userSpaceOnUse" x1="429.202" y1="491.6107" x2="508.1712" y2="534.8472">
	<stop  offset="0.2162" style="stop-color:#FF8000"/>
	<stop  offset="1" style="stop-color:#FFC58B"/>
</linearGradient>
<path class="st15" d="M492.5,492.1l25.1,41.9l-74.4-0.4L492.5,492.1z"/>
<g>
	<g>
		<path class="st16" d="M514.4,373.4l0,59.1l-59.1,0.4l0-59.5L514.4,373.4z"/>
		
			<linearGradient id="SVGID_15_" gradientUnits="userSpaceOnUse" x1="506.5434" y1="1407.0189" x2="467.7285" y2="1364.5073" gradientTransform="matrix(1 0 0 -1 0 1786.1416)">
			<stop  offset="0" style="stop-color:#F50909"/>
			<stop  offset="1" style="stop-color:#FFFFFF;stop-opacity:0"/>
		</linearGradient>
		<path class="st17" d="M455.2,373.4l59-0.2l0.1,59.3h-59.1V373.4z"/>
		
			<linearGradient id="SVGID_16_" gradientUnits="userSpaceOnUse" x1="506.5469" y1="1406.7095" x2="467.8658" y2="1364.3445" gradientTransform="matrix(1 0 0 -1 0 1786.1416)">
			<stop  offset="0" style="stop-color:#F50909"/>
			<stop  offset="1" style="stop-color:#FFFFFF;stop-opacity:0"/>
		</linearGradient>
		<path class="st18" d="M455.4,373.8l59.1,0l-0.1,58.7h-59.1L455.4,373.8z"/>
	</g>
	<g>
		<path class="st19" d="M514.4,373.3l16.7-13.7v58.2l-16.7,14.6L514.4,373.3z"/>
		
			<linearGradient id="SVGID_17_" gradientUnits="userSpaceOnUse" x1="522.6563" y1="1421.0195" x2="522.6563" y2="1361.1569" gradientTransform="matrix(1 0 0 -1 0 1786.1416)">
			<stop  offset="0" style="stop-color:#FF5B5B"/>
			<stop  offset="1" style="stop-color:#FFFFFF;stop-opacity:0"/>
		</linearGradient>
		<path class="st20" d="M514.3,373.4l16.6-13.9l0,58.2l-16.6,14.8V373.4z"/>
	</g>
	<g>
		
			<linearGradient id="SVGID_18_" gradientUnits="userSpaceOnUse" x1="521.3109" y1="1426.4641" x2="461.9975" y2="1411.6357" gradientTransform="matrix(1 0 0 -1 0 1786.1416)">
			<stop  offset="0" style="stop-color:#FCCACA;stop-opacity:0.2297"/>
			<stop  offset="1" style="stop-color:#F21A1A"/>
		</linearGradient>
		<path class="st21" d="M476.8,358.9l54.2,0.8l-16.4,13.5c-0.2,0.2-0.5,0.3-0.8,0.3h-58.6L476.8,358.9z"/>
	</g>
	
		<linearGradient id="SVGID_19_" gradientUnits="userSpaceOnUse" x1="507.6496" y1="1408.7219" x2="476.9205" y2="1375.0662" gradientTransform="matrix(1 0 0 -1 0 1786.1416)">
		<stop  offset="0" style="stop-color:#F50909;stop-opacity:0"/>
		<stop  offset="1" style="stop-color:#FFFFFF;stop-opacity:0.2"/>
	</linearGradient>
	<path class="st22" d="M466.9,373.3h47.5V419h-48.1c0,0,0.1-1,0.1-2.2v-42.9C466.4,373.6,466.6,373.3,466.9,373.3z"/>
	<polygon class="st23" points="455.4,432.6 455.4,432.1 466.3,418.7 466.3,419 466.6,419 	"/>
</g>
<g>
	<linearGradient id="SVGID_20_" gradientUnits="userSpaceOnUse" x1="794.4952" y1="661.006" x2="786.061" y2="614.5151">
		<stop  offset="0" style="stop-color:#86C58B"/>
		<stop  offset="0.3027" style="stop-color:#336A00"/>
	</linearGradient>
	<polygon class="st24" points="832,637.6 790.3,679.4 748.5,637.6 790.3,595.9 	"/>
	<linearGradient id="SVGID_21_" gradientUnits="userSpaceOnUse" x1="731.5249" y1="596.4706" x2="815.4957" y2="642.4456">
		<stop  offset="0.2162" style="stop-color:#338000"/>
		<stop  offset="1" style="stop-color:#86C58B"/>
	</linearGradient>
	<path class="st25" d="M790.3,597l38.4,38.8l-14.4,6.2l-24,5.5l-25.6-2.7l-16.3-7.5L790.3,597z"/>
	<linearGradient id="SVGID_22_" gradientUnits="userSpaceOnUse" x1="787.2775" y1="631.6112" x2="805.989" y2="650.7905">
		<stop  offset="0.2162" style="stop-color:#338000"/>
		<stop  offset="1" style="stop-color:#86C58B"/>
	</linearGradient>
	<path class="st26" d="M751.9,635.8l38.4-38.8l42.2,40.4l-16,5.5l-26.3-46.5"/>
	<linearGradient id="SVGID_23_" gradientUnits="userSpaceOnUse" x1="804.5505" y1="671.202" x2="801.2826" y2="653.1886">
		<stop  offset="0.2892" style="stop-color:#61924D"/>
		<stop  offset="1" style="stop-color:#B6C3A6"/>
	</linearGradient>
	<path class="st27" d="M789.9,680.7l26-37l-26,4.6"/>
	<linearGradient id="SVGID_24_" gradientUnits="userSpaceOnUse" x1="774.1345" y1="653.0737" x2="785.6049" y2="615.7949">
		<stop  offset="0.2162" style="stop-color:#338000"/>
		<stop  offset="1" style="stop-color:#ABD7AF"/>
	</linearGradient>
	<path class="st28" d="M789.8,597.3l-0.4,50.8l-26.6-3"/>
	
		<linearGradient id="SVGID_25_" gradientUnits="userSpaceOnUse" x1="226.4392" y1="760.5871" x2="222.9881" y2="741.564" gradientTransform="matrix(-0.9716 -0.2365 0.2365 -0.9716 817.4632 1444.811)">
		<stop  offset="0.2054" style="stop-color:#335100"/>
		<stop  offset="1" style="stop-color:#86C58B"/>
	</linearGradient>
	<path class="st29" d="M789.8,679.6l-26.1-35.3l26.6,3.1"/>
	<linearGradient id="SVGID_26_" gradientUnits="userSpaceOnUse" x1="800.3024" y1="634.8569" x2="795.0075" y2="605.6706">
		<stop  offset="0.2162" style="stop-color:#338000"/>
		<stop  offset="1" style="stop-color:#86C58B"/>
	</linearGradient>
	<path class="st30" d="M790.2,595.3l25.3,47.9l-26.5,3.9"/>
</g>
<g>
	<linearGradient id="SVGID_27_" gradientUnits="userSpaceOnUse" x1="516.2291" y1="675.6246" x2="510.2571" y2="642.7056">
		<stop  offset="0.2892" style="stop-color:#61924D"/>
		<stop  offset="1" style="stop-color:#B6C3A6"/>
	</linearGradient>
	<polygon class="st31" points="488,634.1 536,670.8 526.9,686.2 503.3,681.8 	"/>
	<linearGradient id="SVGID_28_" gradientUnits="userSpaceOnUse" x1="490.6876" y1="720.4885" x2="499.2939" y2="692.518">
		<stop  offset="0.2162" style="stop-color:#338000"/>
		<stop  offset="1" style="stop-color:#ABD7AF"/>
	</linearGradient>
	<polygon class="st32" points="526.9,686.2 488.6,716.4 474.3,690.5 503.3,681.8 	"/>
	<linearGradient id="SVGID_29_" gradientUnits="userSpaceOnUse" x1="466.9931" y1="710.6765" x2="462.3629" y2="685.1537">
		<stop  offset="0" style="stop-color:#7CA56C"/>
		<stop  offset="1" style="stop-color:#E5EDE2"/>
	</linearGradient>
	<polygon class="st33" points="450.2,677.5 474.3,690.5 488.6,716.4 440.8,679.7 	"/>
	<linearGradient id="SVGID_30_" gradientUnits="userSpaceOnUse" x1="466.3147" y1="667.2781" x2="462.5696" y2="646.6345">
		<stop  offset="0.2054" style="stop-color:#335100"/>
		<stop  offset="1" style="stop-color:#86C58B"/>
	</linearGradient>
	<polygon class="st34" points="488,634.1 450.1,664.3 440.8,679.7 450.2,677.5 	"/>
	<linearGradient id="SVGID_31_" gradientUnits="userSpaceOnUse" x1="472.1502" y1="694.7533" x2="484.5681" y2="654.3951">
		<stop  offset="0.2162" style="stop-color:#338000"/>
		<stop  offset="1" style="stop-color:#ABD7AF"/>
	</linearGradient>
	<polygon class="st35" points="488,634.1 503.3,681.8 474.3,690.5 450.2,677.5 	"/>
</g>
<sodipodi:namedview  bordercolor="#666666" borderopacity="1.0" gridtolerance="10000" guidetolerance="10" id="base" inkscape:current-layer="svg2" inkscape:cx="15.624493" inkscape:cy="157.57069" inkscape:document-units="px" inkscape:pageopacity="0.0" inkscape:pageshadow="2" inkscape:window-height="968" inkscape:window-width="1280" inkscape:window-x="-4" inkscape:window-y="-4" inkscape:zoom="0.70710678" objecttolerance="10" pagecolor="#ffffff" showgrid="false">
	</sodipodi:namedview>
<radialGradient id="path7961_1_" cx="682.9907" cy="616.4023" r="66.2537" gradientTransform="matrix(0.8794 -7.272605e-03 -5.357318e-03 -0.6481 -147.9166 1228.3502)" gradientUnits="userSpaceOnUse">
	<stop  offset="2.432432e-02" style="stop-color:#ED75DD"/>
	<stop  offset="0.2973" style="stop-color:#A750DD"/>
	<stop  offset="1" style="stop-color:#243489"/>
</radialGradient>
<path id="path7961" sodipodi:nodetypes="cccccc" class="st36" d="M511.6,816.2l-8.5,40.1l-39.7,3.7l-16.6-36.6l28.7-27.8
	L511.6,816.2z"/>
<radialGradient id="path7963_1_" cx="437.8" cy="813.2708" r="30.4416" gradientUnits="userSpaceOnUse">
	<stop  offset="2.432432e-02" style="stop-color:#ED75DD"/>
	<stop  offset="0.2973" style="stop-color:#A750DD"/>
	<stop  offset="1" style="stop-color:#3A4895"/>
</radialGradient>
<path id="path7963" sodipodi:nodetypes="cccccc" class="st37" d="M479.1,778.1L457,792.6l-18.4,24.9l8.1,5.9l28.7-27.8L479.1,778.1z
	"/>
<linearGradient id="path8751_1_" gradientUnits="userSpaceOnUse" x1="712.8703" y1="657.095" x2="775.4111" y2="657.095" gradientTransform="matrix(0.8794 -7.272605e-03 -5.357318e-03 -0.6481 -147.9166 1228.3502)">
	<stop  offset="0" style="stop-color:#DDBBF2"/>
	<stop  offset="1" style="stop-color:#3A4895"/>
</linearGradient>
<path id="path8751" sodipodi:nodetypes="cccccc" class="st38" d="M511.5,816.2l19-9.6l-20.4-21.1l-31.1-7.4l-3.6,17.5L511.5,816.2z"
	/>
<linearGradient id="path8781_1_" gradientUnits="userSpaceOnUse" x1="743.6703" y1="597.9249" x2="777.6389" y2="597.9249" gradientTransform="matrix(0.8794 -7.272605e-03 -5.357318e-03 -0.6481 -147.9166 1228.3502)">
	<stop  offset="0" style="stop-color:#FFFFFF"/>
	<stop  offset="1" style="stop-color:#3A4895"/>
</linearGradient>
<path id="path8781" sodipodi:nodetypes="cccccc" class="st39" d="M511.5,816.2l-8.5,40.1l15.3,7.6l14.4-28.5l-2.1-28.8L511.5,816.2z
	"/>
<radialGradient id="path8791_1_" cx="488.3333" cy="850.4041" r="36.0343" gradientUnits="userSpaceOnUse">
	<stop  offset="0" style="stop-color:#A750DD"/>
	<stop  offset="1" style="stop-color:#1D2D85"/>
</radialGradient>
<path id="path8791" sodipodi:nodetypes="cccccc" class="st40" d="M518.3,863.8l-15.2-7.6l-39.7,3.7l-1.2,8.4l30.9,2L518.3,863.8z"/>
<radialGradient id="path8801_1_" cx="671.9479" cy="591.9303" r="34.9628" gradientTransform="matrix(0.8794 -7.272605e-03 -5.357318e-03 -0.6481 -147.9166 1228.3502)" gradientUnits="userSpaceOnUse">
	<stop  offset="0" style="stop-color:#C96ED0"/>
	<stop  offset="0.7351" style="stop-color:#05165C"/>
	<stop  offset="1" style="stop-color:#2B2772"/>
</radialGradient>
<path id="path8801" sodipodi:nodetypes="cccccc" class="st41" d="M448,844l14.2,24.4l1.6-9.3l-17-35.7l-8.1-5.8L448,844z"/>
<g>
	<g>
		<path class="st42" d="M517.8,110.1c3.6,19-8.8,37.4-27.8,41.1c-19,3.6-37.4-8.8-41.1-27.8c-3.6-19,8.8-37.4,27.8-41.1
			C495.8,78.6,514.2,91.1,517.8,110.1z"/>
		
			<linearGradient id="SVGID_32_" gradientUnits="userSpaceOnUse" x1="437.1563" y1="1730.2549" x2="507.318" y2="1637.8427" gradientTransform="matrix(1 0 0 -1 0 1786.1416)">
			<stop  offset="0" style="stop-color:#FFFFFF"/>
			<stop  offset="8.282530e-02" style="stop-color:#FCFCFC;stop-opacity:0.9945"/>
			<stop  offset="0.474" style="stop-color:#FFCF55"/>
			<stop  offset="1" style="stop-color:#FFC42C"/>
		</linearGradient>
		<path class="st43" d="M517.8,110.1c3.6,19-8.8,37.4-27.8,41.1c-19,3.6-37.4-8.8-41.1-27.8c-3.6-19,8.8-37.4,27.8-41.1
			C495.8,78.6,514.2,91.1,517.8,110.1z"/>
		<path class="st44" d="M517.8,110.1c3.6,19-8.8,37.4-27.8,41.1c-19,3.6-37.4-8.8-41.1-27.8c-3.6-19,8.8-37.4,27.8-41.1
			C495.8,78.6,514.2,91.1,517.8,110.1z"/>
		<path class="st45" d="M514,110.4c3.1,16-8,32.2-25.1,35.5c-17,3.3-30.9-6.8-34-22.9c-3.1-16.1,6.3-32.6,23.3-35.8
			C495.3,83.8,511,94.3,514,110.4z"/>
	</g>
	<g>
		<g id="use2679" transform="matrix(-0.5872317,0.42664884,-0.42664884,-0.5872317,559.85698,117.08031)">
			<polygon id="gad" class="st46" points="483.6,117.1 483.6,125.1 483.6,125.1 496.8,134 			"/>
		</g>
		<g id="g4626">
			<g id="use2683" transform="matrix(-0.5872317,-0.42664884,0.42664884,-0.5872317,559.85698,117.08031)">
				<polygon id="gad_1_" class="st47" points="483.6,117.1 475.5,119.5 475.5,119.5 470.5,134 				"/>
			</g>
			<g id="use2687" transform="matrix(-0.7258583,0,0,0.72640879,559.85698,117.03549)">
				<polygon id="gad_2_" class="st48" points="483.6,117 478.6,110.6 478.6,110.6 483.6,96.1 				"/>
			</g>
		</g>
		<g id="g4630">
			<g id="use2677" transform="matrix(0.22430255,0.69033225,-0.69033225,0.22430255,559.85698,117.08031)">
				<polygon id="gad_3_" class="st49" points="483.6,117.1 491.8,119.5 491.8,119.5 505,110.6 				"/>
			</g>
			<g id="use2691" transform="matrix(0.5872317,0.42697241,0.42664884,-0.58767706,559.85698,117.03549)">
				<polygon id="gad_4_" class="st50" points="483.6,117 483.6,125.1 483.6,125.1 470.5,134 				"/>
			</g>
		</g>
		<g id="use2689" transform="matrix(-0.22430255,0.69033225,0.69033225,0.22430255,559.85698,117.08031)">
			<polygon id="gad_5_" class="st46" points="483.6,117.1 475.5,119.5 475.5,119.5 462.3,110.6 			"/>
		</g>
		<g id="g4640">
			<g id="use2681" transform="matrix(0.22430255,-0.69033225,0.69033225,0.22430255,559.85698,117.08031)">
				<polygon id="gad_6_" class="st51" points="483.6,117.1 478.6,110.6 478.6,110.6 462.3,110.6 				"/>
			</g>
			<g id="use2693" transform="matrix(-0.22430255,-0.69033225,-0.69033225,0.22430255,559.85698,117.08031)">
				<polygon id="gad_7_" class="st51" points="483.6,117.1 488.7,110.6 488.7,110.6 505,110.6 				"/>
			</g>
		</g>
		<g id="g4620">
			<g id="use2675" transform="matrix(0.7258583,0,0,0.7258583,559.85698,117.08031)">
				<polygon id="gad_8_" class="st52" points="483.6,117.1 488.7,110.6 488.7,110.6 483.6,96.1 				"/>
			</g>
			<g id="use2695" transform="matrix(0.5872317,-0.42664884,-0.42664884,-0.5872317,559.85698,117.08031)">
				<polygon id="gad_9_" class="st52" points="483.6,117.1 491.8,119.5 491.8,119.5 496.8,134 				"/>
			</g>
		</g>
	</g>
</g>
<g>
	<radialGradient id="SVGID_33_" cx="489.616" cy="953.4502" r="34.7393" gradientUnits="userSpaceOnUse">
		<stop  offset="2.432432e-02" style="stop-color:#ED75DD"/>
		<stop  offset="0.2973" style="stop-color:#A750DD"/>
		<stop  offset="1" style="stop-color:#243489"/>
	</radialGradient>
	<polygon class="st53" points="530.7,959.7 510.2,967.9 487.9,934.9 	"/>
	<radialGradient id="SVGID_34_" cx="466.6113" cy="953.4523" r="36.9172" gradientUnits="userSpaceOnUse">
		<stop  offset="2.432432e-02" style="stop-color:#ED75DD"/>
		<stop  offset="0.2973" style="stop-color:#A750DD"/>
		<stop  offset="1" style="stop-color:#243489"/>
	</radialGradient>
	<polygon class="st54" points="487.9,934.9 510.6,967.9 464.7,967.2 	"/>
	<radialGradient id="SVGID_35_" cx="447.8979" cy="953.1156" r="33.8634" gradientUnits="userSpaceOnUse">
		<stop  offset="2.432432e-02" style="stop-color:#ED75DD"/>
		<stop  offset="0.2973" style="stop-color:#A750DD"/>
		<stop  offset="1" style="stop-color:#243489"/>
	</radialGradient>
	<polygon class="st55" points="487.9,934.9 464.7,967.3 446.2,958.5 	"/>
	<radialGradient id="SVGID_36_" cx="465.25" cy="989.0708" r="38.5762" gradientUnits="userSpaceOnUse">
		<stop  offset="2.432432e-02" style="stop-color:#ED75DD"/>
		<stop  offset="0.2973" style="stop-color:#A750DD"/>
		<stop  offset="1" style="stop-color:#243489"/>
	</radialGradient>
	<polygon class="st56" points="446.1,958.4 465.2,967.2 445.5,1002.6 	"/>
	<radialGradient id="SVGID_37_" cx="447.5" cy="1023.0708" r="46.7366" gradientUnits="userSpaceOnUse">
		<stop  offset="2.432432e-02" style="stop-color:#ED75DD"/>
		<stop  offset="0.2973" style="stop-color:#A750DD"/>
		<stop  offset="1" style="stop-color:#243489"/>
	</radialGradient>
	<polygon class="st57" points="464.9,967.3 487.6,1011.5 445.5,1002.6 	"/>
	<radialGradient id="SVGID_38_" cx="447.2468" cy="1018.3011" r="34.1534" gradientUnits="userSpaceOnUse">
		<stop  offset="2.432432e-02" style="stop-color:#ED75DD"/>
		<stop  offset="0.2973" style="stop-color:#A750DD"/>
		<stop  offset="1" style="stop-color:#243489"/>
	</radialGradient>
	<polygon class="st58" points="488.2,1030.6 445.5,1002.5 487.7,1011.5 	"/>
	<polygon class="st59" points="487.6,1011.6 464.2,967.2 510.4,967.9 	"/>
	<radialGradient id="SVGID_39_" cx="489.3894" cy="1018.7178" r="35.0086" gradientUnits="userSpaceOnUse">
		<stop  offset="2.432432e-02" style="stop-color:#ED75DD"/>
		<stop  offset="0.2973" style="stop-color:#A750DD"/>
		<stop  offset="1" style="stop-color:#243489"/>
	</radialGradient>
	<polygon class="st60" points="488.2,1030.5 487.6,1011.6 531.6,1003.5 	"/>
	<radialGradient id="SVGID_40_" cx="489.4308" cy="992.368" r="36.9916" gradientUnits="userSpaceOnUse">
		<stop  offset="2.432432e-02" style="stop-color:#ED75DD"/>
		<stop  offset="0.2973" style="stop-color:#A750DD"/>
		<stop  offset="1" style="stop-color:#243489"/>
	</radialGradient>
	<polygon class="st61" points="487.6,1011.5 510.4,967.8 531.6,1003.6 	"/>
	<radialGradient id="SVGID_41_" cx="511.1516" cy="984.2895" r="22.4404" gradientUnits="userSpaceOnUse">
		<stop  offset="2.432432e-02" style="stop-color:#ED75DD"/>
		<stop  offset="0.2973" style="stop-color:#A750DD"/>
		<stop  offset="1" style="stop-color:#243489"/>
	</radialGradient>
	<polygon class="st62" points="531.6,1003.6 510.3,967.8 530.5,959.5 	"/>
	<path class="st63" d="M488.7,1030.3l43.3-26.9l0.1,0l0,0l-1.2-43.7l0.2-0.1l-0.2-0.1l0-0.1l-0.1,0l-42.5-24.6l0,0l0,0l0,0l0,0l0,0
		l0,0l0,0l-41.6,23.5l-0.1,0l-0.6,44.1l0,0l0,0l0,0.1l0-0.1l0,0l0,0l0.1,0L488.7,1030.3L488.7,1030.3z M488.2,1011.3L488.2,1011.3
		L488.2,1011.3l5.5-10.6L488.2,1011.3l31.2-5.7L488.2,1011.3z M510.7,967.6L510.7,967.6L510.7,967.6l0.1,0l-45.1-0.7l0,0
		L510.7,967.6L510.7,967.6z M488.4,934.7l-0.8,1.1L488.4,934.7L488.4,934.7z M446.1,1002.3l0.1-0.3L446.1,1002.3L446.1,1002.3z"/>
</g>
</svg>
