<?xml version="1.0" encoding="utf-8"?>
<!-- Generator: Adobe Illustrator 23.0.3, SVG Export Plug-In . SVG Version: 6.00 Build 0)  -->
<svg version="1.1" id="Layer_1" xmlns="http://www.w3.org/2000/svg" xmlns:xlink="http://www.w3.org/1999/xlink" x="0px" y="0px"
	 viewBox="0 0 385 370" style="enable-background:new 0 0 385 370;" xml:space="preserve">
<style type="text/css">
	.st0{fill:none;stroke:#FFFFFF;stroke-width:9;stroke-miterlimit:10;}
	.st1{fill-rule:evenodd;clip-rule:evenodd;fill:#A1B8BF;stroke:#FFFFFF;stroke-width:4;stroke-miterlimit:10;}
	.st2{fill-rule:evenodd;clip-rule:evenodd;fill:#739CAD;stroke:#FFFFFF;stroke-width:4;stroke-miterlimit:10;}
	.st3{fill-rule:evenodd;clip-rule:evenodd;fill:#ADBFC4;stroke:#FFFFFF;stroke-width:4;stroke-miterlimit:10;}
	.st4{fill-rule:evenodd;clip-rule:evenodd;fill:#C3DBE2;stroke:#FFFFFF;stroke-width:4;stroke-miterlimit:10;}
	.st5{fill-rule:evenodd;clip-rule:evenodd;fill:#5A808C;stroke:#FFFFFF;stroke-width:4;stroke-miterlimit:10;}
	.st6{fill-rule:evenodd;clip-rule:evenodd;fill:#2A4B56;stroke:#FFFFFF;stroke-width:4;stroke-miterlimit:10;}
	.st7{fill-rule:evenodd;clip-rule:evenodd;fill:#335767;stroke:#FFFFFF;stroke-width:4;stroke-miterlimit:10;}
	.st8{fill-rule:evenodd;clip-rule:evenodd;fill:#618693;stroke:#FFFFFF;stroke-width:4;stroke-miterlimit:10;}
	.st9{fill:#FFFFFF;}
</style>
<g id="Layer_3">
	<polyline class="st0" points="50.5,271.1 50.3,271 50.5,271.1 50.4,271.6 185.8,349.9 341.2,287.7 349.3,117.2 210,24.6 
		68.5,102.2 68.6,102.3 50.3,271 	"/>
</g>
<g>
	<path id="path2329" class="st1" d="M303.1,161.1l38.2,126.5l-155.5,45.7L303.1,161.1z"/>
	<path id="path3300" class="st2" d="M88.7,148.1l214.3,13L185.8,333.3L88.7,148.1z"/>
	<path id="path4271" class="st3" d="M303.1,161.1l45.7-43.6L340.9,288L303.1,161.1z"/>
	<path id="path4273" class="st4" d="M210,24.6l139.3,92.7L303,161.2L210,24.6z"/>
	<path id="path5244" class="st5" d="M89,148.2L50.4,271.6l135.4,61.7L89,148.2z"/>
	<path id="path6215" class="st6" d="M341.5,286.5l-155.7,63.4v-16.6L341.5,286.5z"/>
	<path id="path7186" class="st7" d="M210,24.6L88.7,148.1l214.3,13L210,24.6z"/>
	<path id="path8157" class="st8" d="M210,24.6L88.7,148.1l-20.2-46L210,24.6z"/>
	<path id="path9128" class="st2" d="M68.6,102.3l20.1,45.8L50.3,271L68.6,102.3z"/>
	<path id="path6215_1_" class="st7" d="M50.3,271l135.5,62.3v16.6L50.3,271z"/>
</g>
<g>
	<path class="st9" d="M203.9,170.7v32.7h31.3v14.1h-31.3v33h-14.7v-33h-31.3v-14.1h31.3v-32.7H203.9z"/>
</g>
</svg>
